<?xml version="1.0" encoding="UTF-8"?>
<svg xmlns="http://www.w3.org/2000/svg" version="1.1" viewBox="0 0 592.2 105.4">
  <defs>
    <style>
      .cls-1 {
        fill: #231f20;
      }
    </style>
  </defs>
  <!-- Generator: Adobe Illustrator 28.7.1, SVG Export Plug-In . SVG Version: 1.2.0 Build 142)  -->
  <g>
    <g id="Layer_1">
      <g>
        <path class="cls-1" d="M64,97.1c-10.3.8-20.6,1.5-30.7,2.2-10.2.7-20.4,1.3-30.8,2-.4-16.6-.8-33-1-49.3C1.2,35.6.7,19.1,0,2.5c5.8,0,11.5-.3,17.2-.5,5.6-.3,11.3-.6,17-1-1,6.4-1.8,12.9-2.7,19.3-.8,6.5-1.5,12.9-1.9,19.4-.3,5.5-.6,10.9-.8,16.3-.2,5.4-.4,10.9-.6,16.3,5.7.2,11.4.3,17,.3s11.2,0,16.8.3l2,24.3Z"/>
        <path class="cls-1" d="M149.3,21.2c-8.5.4-16.9.9-25.3,1.4-8.4.5-16.8,1.1-25.3,1.8l-.3,10.3,33.5-2c.4,2.9.8,5.9,1,8.7.2,2.9.3,5.8.3,8.7s0,2.5,0,3.8c0,1.3,0,2.6,0,3.8l-31.2,5.6,2,16.1c6.6-.4,13.2-1.1,19.7-1.9,6.5-.8,13.2-1.5,19.8-2.1.6,4.3,1.2,8.7,1.8,13.1.6,4.4,1.5,8.6,2.6,12.8-12.3,0-24.5,0-36.7,0-12.1.1-24.4.2-36.7.2.3-10.1.6-20.2.9-30.3.3-10.1.5-20.2.5-30.4v-2.5c0-5.9,0-11.8-.3-17.6-.2-5.9-.3-11.8-.5-17.7,6.8,0,13.7.1,20.5,0,6.8,0,13.7,0,20.6,0s10.6.1,15.8.3c5.2.2,10.5.5,15.8.7l1.4,17.3Z"/>
        <path class="cls-1" d="M256.1,2.9c-6.7,8.2-13.3,16.4-19.8,24.5-6.5,8.1-13.3,16.1-20.3,24.1,4.9,8.1,10.1,16,15.6,23.8,2.9,4.2,6,8.3,9.1,12.3,3.1,4,6.3,8.1,9.5,12.2l-32.8,1c-2.9-4.9-5.8-9.8-8.8-14.5-3-4.7-6-9.6-8.8-14.5-3.3,4.9-6.5,9.7-9.5,14.5-3,4.8-6,9.7-9,14.8-1.9-.3-3.9-.5-5.9-.6-2,0-4,0-6,0-3.3,0-6.6,0-9.9.2-3.3.1-6.7.3-9.9.5l34.1-43.9c-2-3.3-4-6.5-5.9-9.8-2-3.2-3.9-6.4-5.9-9.6-3.7-5.7-7.6-11.4-11.5-17-3.9-5.6-7.9-11.2-11.8-16.8,6.2.3,12.4.6,18.5.6,6.1,0,12.2.3,18.3.7,2.6,4.4,5.3,8.8,8.1,13.1,2.8,4.3,5.6,8.6,8.4,12.9,3.2-4.6,6.4-9.2,9.6-13.7,3.2-4.6,6.2-9.2,9-14,2.2.2,4.3.2,6.4.2,2.1,0,4.3,0,6.4,0,7.5,0,15.2-.3,22.9-.8Z"/>
        <path class="cls-1" d="M310.6,4.9c-.4,5.3-.6,10.6-.5,15.8,0,5.2,0,10.5-.1,15.7l-14.4-.5c0,3-.2,6-.2,9,0,2.9,0,5.9,0,9s0,7.2,0,10.7c0,3.5.1,7.1.2,10.7l13.3.3c-.2,2.5-.3,5.1-.3,7.7v7.8c0,2.2,0,4.3.2,6.5.1,2.2.4,4.3.8,6.4l-46.7.8c0-4.2,0-8.4-.1-12.5,0-4.1-.3-8.3-.5-12.5h8.5c-.4-8.3-.9-16.3-1.5-24.3-.6-8-1.2-16-1.8-24.1l-12.4-1.6c-.2-3.6-.3-7.3-.5-10.9-.1-3.6-.3-7.2-.5-10.9,9.4-.3,18.8-.8,28.1-1.2,9.3-.5,18.7-1.1,28.3-1.8Z"/>
        <path class="cls-1" d="M410.5,69.6v20.3c-4.1.8-8.1,1.5-12,2.2-3.9.7-7.8,1.3-11.8,1.8-4.2.5-8.3,1-12.5,1.4-4.2.4-8.3.7-12.5.7s-3,0-5.3-.1c-2.3,0-4.8-.3-7.3-.5-2.5-.3-4.9-.6-7.2-1-2.3-.4-3.9-.9-4.9-1.5-1-.6-1.9-1.3-2.7-2.1-.9-.8-1.6-1.7-2.3-2.5-1.8-2.3-3.3-4.7-4.6-7.4-1.2-2.7-2.2-5.5-2.9-8.3-.7-2.9-1.2-5.8-1.5-8.7-.3-2.9-.5-5.9-.5-8.7s.2-7.1.6-10.8c.4-3.7,1-7.4,1.9-11.1.9-3.6,2-7.2,3.4-10.5,1.4-3.4,3.2-6.5,5.3-9.4.6-.8,1.4-1.7,2.3-2.9,1-1.1,1.9-2,2.9-2.5,2.3-1.3,5-2.4,7.9-3.3,2.9-.9,5.9-1.5,9-2,3.1-.5,6.2-.8,9.3-1,3.1-.2,5.9-.3,8.5-.3,4.9,0,9.9.3,14.8.8,4.9.6,9.8,1.5,14.4,2.9-.2,2.3-.3,4.7-.4,7.1,0,2.4-.1,4.7-.1,7.1,0,5.6.1,11.3.4,17-3.9-1.5-8-2.5-12.2-3.2-4.2-.7-8.5-1-12.6-1s-2.1,0-3.8.2c-1.6.1-3.5.3-5.6.5-2.1.2-4.2.5-6.4.8-2.2.3-4.3.8-6.2,1.3-1.9.5-3.6,1.1-5,1.8-1.4.7-2.4,1.4-2.8,2.2-.3.7-.6,1.7-.8,2.9-.2,1.3-.4,2.6-.5,4-.1,1.4-.2,2.7-.3,4,0,1.3,0,2.3,0,3.1s0,2.3.3,4.7c.2,2.3.4,4.8.6,7.5.3,2.6.6,5.1,1,7.2.4,2.2.8,3.4,1.2,3.8.4.3,1.1.4,2.1.5,1,0,1.7,0,2,0,4.2,0,8.8-.2,13.7-.6,4.9-.4,9.8-1,14.8-1.8,5-.7,9.9-1.5,14.8-2.3,4.9-.8,9.4-1.6,13.5-2.4Z"/>
        <path class="cls-1" d="M507.1,100l-19.8,3c-1.4-4.4-2.8-8.8-4.2-13.2-1.4-4.4-2.7-8.8-4-13.2l-32,1.2-4,17.3h-20c1.2-14.7,2.5-29.4,3.8-43.9,1.3-14.6,2.6-29.2,3.8-43.8,6.2-1,12.5-1.9,18.7-2.6,6.2-.7,12.5-1,18.8-1s15.4.1,23.1.4c1.4,9,2.8,18,4.1,27,1.3,9,2.8,18,4.2,27,1,7.1,2.2,14.1,3.4,21.1,1.3,6.9,2.6,13.9,4.1,20.9ZM474.6,58.9c0-.8-.3-2.2-.7-4.4-.3-2.1-.7-4.4-1.2-6.8-.4-2.4-.9-4.6-1.5-6.5-.6-2-1.1-3.1-1.6-3.4-.2,0-.6-.2-1.2-.3-.7,0-1.3-.2-2.1-.3-.7,0-1.5-.1-2.1-.1h-3.2c-.7,0-1.5,0-2.3,0-.8,0-1.6.2-2.3.3-.7.2-1.2.4-1.5.7-.2,0-.4.6-.6,1.7-.3,1-.6,2.3-1,3.8-.4,1.5-.8,3.1-1.2,4.9-.4,1.7-.8,3.4-1.1,4.9-.3,1.6-.6,2.9-.8,4-.2,1.1-.4,1.8-.5,2l25-.7Z"/>
        <path class="cls-1" d="M592.2,24.7v9.1l-25.1,1.3c-.3,5-.6,10-.8,15-.2,4.9-.3,9.9-.3,14.8s-.2,12.1-.5,18.1c-.3,6-.7,12-1.1,18-3.1.2-6.2.3-9.4.5-3.1.1-6.2.2-9.4.2s-2.2,0-3.3,0c-1.1,0-2.1,0-3.2,0,.2-5.3.3-10.6.5-15.8.1-5.2.2-10.5.2-15.7s-.1-10.4-.4-15.7c-.3-5.2-.6-10.5-.9-15.8-2.5,0-5.1.2-7.6.3-2.6,0-5.1.1-7.7.1h-4.4c-1.4,0-2.9,0-4.4-.1-.3-6.4-.4-12.8-.5-19.1,0-6.3-.2-12.7-.3-19,13,.3,25.9.6,38.7,1.1,12.8.5,25.7.9,38.6,1.2.3,3.7.6,7.3.8,10.9.2,3.5.3,7.1.3,10.7Z"/>
      </g>
    </g>
  </g>
</svg>